<svg width="24" height="24" viewBox="0 0 24 24" fill="none" xmlns="http://www.w3.org/2000/svg">
<path d="M17.7348 9.69082C17.468 9.78955 17.2697 10.0358 17.2697 10.3203V11.8001C17.2697 12.1953 17.351 12.6508 17.4639 13.0623C17.577 13.4745 17.7379 13.902 17.93 14.2349L17.9372 14.247L19.0866 16.156C19.5003 16.8464 19.165 17.7399 18.4143 17.988L18.412 17.9888C14.2568 19.3771 9.77413 19.3773 5.61879 17.9893C5.16203 17.8343 4.89919 17.5491 4.78926 17.2522C4.67958 16.956 4.69335 16.5707 4.94221 16.157L6.09221 14.247L6.09389 14.2442C6.29418 13.9082 6.45889 13.4778 6.5736 13.0645C6.68826 12.6515 6.76968 12.1955 6.76968 11.8001V8.91014C6.76968 6.45599 8.46057 4.39082 10.739 3.81799C10.9942 3.75381 11.2032 3.55989 11.292 3.31214V3.31214C11.4755 2.80052 11.1228 2.1972 10.5916 2.31191C7.55179 2.96826 5.26968 5.67582 5.26968 8.91014V11.8001C5.26968 12.0148 5.22111 12.3288 5.12826 12.6633C5.03569 12.9968 4.91574 13.2907 4.80623 13.4748L4.80547 13.4761L3.65716 15.3833C3.19612 16.1495 3.0998 17.0093 3.3826 17.7731C3.66507 18.5359 4.29683 19.1254 5.13923 19.4106L5.14202 19.4115C9.60589 20.9029 14.4223 20.903 18.8862 19.4119C20.5545 18.8596 21.2784 16.8935 20.3728 15.3843L19.2262 13.4799C19.1191 13.2925 19.0015 12.9975 18.9105 12.6655C18.8183 12.3295 18.7697 12.015 18.7697 11.8001V10.3324C18.7697 9.83271 18.2035 9.51742 17.7348 9.69082V9.69082Z" fill="#AAAAAA"/>
<path d="M15.0195 19.0596C15.0195 20.7096 13.6695 22.0596 12.0195 22.0596C11.1995 22.0596 10.4395 21.7196 9.89953 21.1796C9.35953 20.6396 9.01953 19.8796 9.01953 19.0596" stroke="#AAAAAA" stroke-width="1.5" stroke-miterlimit="10"/>
<path d="M16 8C17.6569 8 19 6.65685 19 5C19 3.34315 17.6569 2 16 2C14.3431 2 13 3.34315 13 5C13 6.65685 14.3431 8 16 8Z" stroke="#A4C202" stroke-width="1.5" stroke-linecap="round" stroke-linejoin="round"/>
</svg>
